<svg width="24" height="24" viewBox="0 0 24 24" fill="none" xmlns="http://www.w3.org/2000/svg">
  <circle cx="12" cy="12" r="3" stroke="#182431" stroke-width="1.8"/>
  <path d="M19 12C19 11.5 18.9 11 18.8 10.5L21 8.8L19 5.2L16.3 6.3C15.6 5.7 14.8 5.3 14 5L13.6 2H10.4L10 5C9.2 5.3 8.4 5.7 7.7 6.3L5 5.2L3 8.8L5.2 10.5C5.1 11 5 11.5 5 12C5 12.5 5.1 13 5.2 13.5L3 15.2L5 18.8L7.7 17.7C8.4 18.3 9.2 18.7 10 19L10.4 22H13.6L14 19C14.8 18.7 15.6 18.3 16.3 17.7L19 18.8L21 15.2L18.8 13.5C18.9 13 19 12.5 19 12Z" stroke="#182431" stroke-width="1.5" stroke-linejoin="round"/>
</svg>
